<?xml version="1.0" encoding="utf-8"?>
<!-- Svg Vector Icons : http://www.onlinewebfonts.com/icon -->
<!DOCTYPE svg PUBLIC "-//W3C//DTD SVG 1.1//EN" "http://www.w3.org/Graphics/SVG/1.1/DTD/svg11.dtd">
<svg fill="#fff" version="1.1" xmlns="http://www.w3.org/2000/svg" xmlns:xlink="http://www.w3.org/1999/xlink" x="0px" y="0px" viewBox="0 0 1000 1000" enable-background="new 0 0 1000 1000" xml:space="preserve">
<metadata> Svg Vector Icons : http://www.onlinewebfonts.com/icon </metadata>
<g><g><g><path d="M724.2,651c51-66.9,81.7-150.2,81.7-240.6C805.9,191,627.4,12.5,407.9,12.5C188.5,12.5,10,191,10,410.4c0,219.4,178.6,397.9,397.9,397.9c93.1,0,178.6-32.3,246.3-86l265.1,265.1l70.6-70.7L724.2,651z M407.9,718.8c-170,0-308.3-138.3-308.3-308.3c0-170,138.3-308.3,308.3-308.3c170.1,0,308.4,138.3,308.4,308.3C716.3,580.5,578,718.8,407.9,718.8z"/><polygon points="452.7,231.3 363.1,231.3 363.1,365.6 228.8,365.6 228.8,455.2 363.1,455.2 363.1,589.6 452.7,589.6 452.7,455.2 587.1,455.2 587.1,365.6 452.7,365.6 "/></g></g><g></g><g></g><g></g><g></g><g></g><g></g><g></g><g></g><g></g><g></g><g></g><g></g><g></g><g></g><g></g></g>
</svg>